<?xml version="1.0" encoding="UTF-8"?>
<svg xmlns="http://www.w3.org/2000/svg" xmlns:xlink="http://www.w3.org/1999/xlink" width="100px" height="100px" viewBox="0 0 100 100" version="1.1">
<g id="surface1">
<path style=" stroke:none;fill-rule:nonzero;fill:rgb(0%,0%,0%);fill-opacity:1;" d="M 20.039062 1.777344 C 18.828125 2.070312 17.050781 3.105469 16.191406 4.042969 C 15.761719 4.511719 15.117188 5.488281 14.785156 6.210938 L 14.160156 7.519531 L 14.101562 46.71875 L 14.0625 85.9375 L 2.519531 85.9375 L 2.011719 86.445312 C 1.523438 86.933594 1.523438 86.953125 1.582031 89.726562 C 1.660156 92.480469 1.679688 92.519531 2.382812 93.984375 C 3.261719 95.761719 4.394531 96.855469 6.210938 97.714844 L 7.519531 98.339844 L 75.292969 98.339844 L 76.601562 97.714844 C 78.417969 96.855469 79.550781 95.761719 80.429688 93.984375 L 81.152344 92.5 L 81.210938 87.753906 C 81.269531 84.296875 81.347656 83.007812 81.503906 83.007812 C 81.640625 83.007812 82.597656 82.617188 83.632812 82.148438 C 89.980469 79.296875 94.960938 73.769531 97.148438 67.1875 C 101.113281 55.253906 95.410156 42.089844 83.925781 36.71875 C 83.046875 36.308594 82.089844 35.898438 81.796875 35.839844 L 81.25 35.703125 L 81.25 14.0625 L 97.480469 14.0625 L 97.988281 13.554688 C 98.476562 13.066406 98.476562 13.046875 98.398438 10.292969 C 98.339844 7.675781 98.300781 7.441406 97.714844 6.210938 C 96.855469 4.394531 95.761719 3.261719 93.984375 2.382812 L 92.5 1.660156 L 56.660156 1.621094 C 35.449219 1.621094 20.488281 1.679688 20.039062 1.777344 Z M 78.925781 6.09375 L 78.222656 7.5 L 78.105469 34.804688 L 77.480469 34.6875 C 77.128906 34.628906 75.800781 34.53125 74.511719 34.453125 C 70.546875 34.238281 65.9375 35.175781 62.519531 36.894531 L 61.347656 37.5 L 46.875 37.5 L 46.875 40.625 L 56.914062 40.625 L 55.449219 42.167969 L 54.003906 43.691406 L 48.105469 43.730469 L 42.1875 43.75 L 42.1875 46.875 L 51.738281 46.875 L 51.015625 48.4375 L 50.292969 49.980469 L 46.25 50 L 42.1875 50 L 42.1875 53.125 L 49.257812 53.125 L 49.140625 53.554688 C 48.90625 54.394531 48.4375 57.714844 48.4375 58.535156 L 48.4375 59.375 L 42.1875 59.375 L 42.1875 62.5 L 48.613281 62.5 L 48.730469 63.222656 C 48.808594 63.632812 48.945312 64.277344 49.042969 64.648438 C 49.140625 65.019531 49.21875 65.390625 49.21875 65.46875 C 49.21875 65.566406 47.636719 65.625 45.703125 65.625 L 42.1875 65.625 L 42.1875 68.75 L 46.25 68.75 L 50.292969 68.769531 L 51.015625 70.3125 L 51.738281 71.875 L 42.1875 71.875 L 42.1875 75 L 53.847656 75 L 55.566406 76.757812 C 59.179688 80.449219 63.535156 82.832031 68.554688 83.90625 C 70.351562 84.277344 74.921875 84.394531 77.011719 84.121094 L 78.144531 83.984375 L 78.085938 87.929688 C 78.027344 91.542969 77.988281 91.953125 77.597656 92.675781 C 77.109375 93.59375 76.347656 94.335938 75.390625 94.84375 C 74.785156 95.175781 74.21875 95.214844 70.3125 95.214844 C 65.527344 95.214844 65.292969 95.175781 64.003906 93.964844 C 62.890625 92.949219 62.636719 92.128906 62.519531 89.296875 C 62.402344 86.855469 62.363281 86.660156 61.933594 86.308594 C 61.484375 85.957031 60.839844 85.9375 39.335938 85.9375 L 17.1875 85.9375 L 17.1875 47.34375 C 17.1875 17.597656 17.246094 8.554688 17.421875 7.929688 C 17.714844 6.933594 19.355469 5.253906 20.3125 4.941406 C 20.800781 4.785156 29.53125 4.726562 50.3125 4.707031 L 79.609375 4.6875 Z M 92.578125 5.15625 C 94.296875 6.074219 95.097656 7.363281 95.253906 9.492188 L 95.371094 10.9375 L 81.191406 10.9375 L 81.308594 9.492188 C 81.484375 7.050781 82.597656 5.546875 84.765625 4.863281 C 85.039062 4.785156 86.757812 4.726562 88.574219 4.746094 C 91.386719 4.785156 91.992188 4.84375 92.578125 5.15625 Z M 76.074219 37.714844 C 84.765625 38.789062 91.972656 44.941406 94.414062 53.398438 C 97.34375 63.496094 92.441406 74.414062 82.910156 79.003906 C 79.785156 80.507812 77.070312 81.113281 73.4375 81.113281 C 67.324219 81.113281 62.460938 79.082031 58.085938 74.726562 C 54.785156 71.40625 53.027344 68.164062 52.050781 63.574219 C 51.640625 61.640625 51.582031 57.695312 51.933594 55.664062 C 53.398438 47.402344 59.472656 40.664062 67.519531 38.378906 C 70.449219 37.539062 73.046875 37.34375 76.074219 37.714844 Z M 59.414062 90.839844 C 59.511719 92.34375 59.628906 92.8125 60.195312 93.964844 L 60.859375 95.3125 L 34.804688 95.3125 C 14.902344 95.3125 8.554688 95.253906 7.929688 95.078125 C 6.855469 94.765625 5.234375 93.144531 4.921875 92.070312 C 4.785156 91.621094 4.6875 90.761719 4.6875 90.15625 L 4.6875 89.0625 L 59.316406 89.0625 Z M 59.414062 90.839844 "/>
<path style=" stroke:none;fill-rule:nonzero;fill:rgb(0%,0%,0%);fill-opacity:1;" d="M 20.800781 14.550781 L 20.3125 15.019531 L 20.3125 31.855469 L 20.800781 32.324219 L 21.269531 32.8125 L 38.105469 32.8125 L 38.574219 32.324219 L 39.0625 31.855469 L 39.0625 15.019531 L 38.574219 14.550781 L 38.105469 14.0625 L 21.269531 14.0625 Z M 35.9375 23.4375 L 35.9375 29.6875 L 23.4375 29.6875 L 23.4375 17.1875 L 35.9375 17.1875 Z M 35.9375 23.4375 "/>
<path style=" stroke:none;fill-rule:nonzero;fill:rgb(0%,0%,0%);fill-opacity:1;" d="M 46.875 17.1875 L 46.875 18.75 L 75 18.75 L 75 15.625 L 46.875 15.625 Z M 46.875 17.1875 "/>
<path style=" stroke:none;fill-rule:nonzero;fill:rgb(0%,0%,0%);fill-opacity:1;" d="M 42.1875 23.4375 L 42.1875 25 L 75 25 L 75 21.875 L 42.1875 21.875 Z M 42.1875 23.4375 "/>
<path style=" stroke:none;fill-rule:nonzero;fill:rgb(0%,0%,0%);fill-opacity:1;" d="M 42.1875 29.6875 L 42.1875 31.25 L 75 31.25 L 75 28.125 L 42.1875 28.125 Z M 42.1875 29.6875 "/>
<path style=" stroke:none;fill-rule:nonzero;fill:rgb(0%,0%,0%);fill-opacity:1;" d="M 20.800781 36.425781 L 20.3125 36.894531 L 20.3125 53.730469 L 20.800781 54.199219 L 21.269531 54.6875 L 38.105469 54.6875 L 38.574219 54.199219 L 39.0625 53.730469 L 39.0625 36.894531 L 38.574219 36.425781 L 38.105469 35.9375 L 21.269531 35.9375 Z M 35.9375 45.3125 L 35.9375 51.5625 L 23.4375 51.5625 L 23.4375 39.0625 L 35.9375 39.0625 Z M 35.9375 45.3125 "/>
<path style=" stroke:none;fill-rule:nonzero;fill:rgb(0%,0%,0%);fill-opacity:1;" d="M 20.800781 58.300781 L 20.3125 58.769531 L 20.3125 75.605469 L 20.800781 76.074219 L 21.269531 76.5625 L 38.105469 76.5625 L 38.574219 76.074219 L 39.0625 75.605469 L 39.0625 58.769531 L 38.574219 58.300781 L 38.105469 57.8125 L 21.269531 57.8125 Z M 35.9375 67.1875 L 35.9375 73.4375 L 23.4375 73.4375 L 23.4375 60.9375 L 35.9375 60.9375 Z M 35.9375 67.1875 "/>
<path style=" stroke:none;fill-rule:nonzero;fill:rgb(0%,0%,0%);fill-opacity:1;" d="M 76.230469 54.335938 L 68.75 61.796875 L 65.957031 59.023438 C 62.265625 55.371094 62.714844 55.371094 59.042969 59.042969 C 56.523438 61.542969 56.25 61.894531 56.25 62.5 C 56.25 63.125 56.699219 63.632812 62.167969 69.082031 C 67.636719 74.570312 68.125 75 68.75 75 C 69.394531 75 70.097656 74.335938 80.019531 64.394531 C 89.941406 54.492188 90.625 53.769531 90.625 53.125 C 90.625 52.519531 90.351562 52.1875 87.832031 49.667969 C 85.332031 47.167969 84.980469 46.875 84.375 46.875 C 83.75 46.875 83.164062 47.421875 76.230469 54.335938 Z M 85.644531 51.953125 L 86.816406 53.125 L 68.75 71.191406 L 60.058594 62.5 L 61.269531 61.289062 L 62.5 60.078125 L 65.292969 62.851562 C 67.792969 65.332031 68.164062 65.625 68.769531 65.625 C 69.375 65.625 70 65.058594 76.855469 58.203125 C 80.9375 54.121094 84.316406 50.78125 84.375 50.78125 C 84.433594 50.78125 85 51.308594 85.644531 51.953125 Z M 85.644531 51.953125 "/>
</g>
</svg>
