<?xml version="1.0" encoding="UTF-8"?>
<svg xmlns="http://www.w3.org/2000/svg" xmlns:xlink="http://www.w3.org/1999/xlink" width="100px" height="100px" viewBox="0 0 100 100" version="1.1">
<g id="surface1">
<path style=" stroke:none;fill-rule:nonzero;fill:rgb(0%,0%,0%);fill-opacity:1;" d="M 12.96875 15.625 C 7.03125 18.125 6.25 22.03125 6.25 50.46875 C 6.25 75 6.5625 78.125 9.21875 81.40625 L 12.1875 85.15625 L 87.8125 85.15625 L 90.78125 81.40625 C 93.4375 78.125 93.75 75 93.75 50 C 93.75 11.71875 97.5 15 52.03125 14.53125 C 32.5 14.375 14.84375 14.84375 12.96875 15.625 Z M 87.1875 20.625 C 89.84375 23.28125 89.84375 76.71875 87.1875 79.375 C 84.53125 82.03125 15.46875 82.03125 12.8125 79.375 C 10.15625 76.71875 10.15625 23.28125 12.8125 20.625 C 15.46875 17.96875 84.53125 17.96875 87.1875 20.625 Z M 87.1875 20.625 "/>
<path style=" stroke:none;fill-rule:nonzero;fill:rgb(0%,0%,0%);fill-opacity:1;" d="M 16.71875 25.9375 C 16.09375 26.5625 15.625 37.8125 15.625 50.9375 C 15.625 71.09375 15.9375 74.84375 18.125 75.625 C 19.53125 76.09375 34.0625 76.5625 50.78125 76.5625 C 74.53125 76.5625 81.25 76.09375 82.65625 74.375 C 83.90625 72.96875 84.375 64.84375 84.0625 49.0625 L 83.59375 25.78125 L 50.625 25.3125 C 32.65625 25.15625 17.34375 25.46875 16.71875 25.9375 Z M 42.1875 30.78125 C 32.8125 34.0625 35 48.4375 45 48.4375 C 55.46875 48.4375 58.28125 34.21875 48.4375 30.78125 C 47.1875 30.3125 53.59375 29.84375 62.96875 29.84375 L 79.6875 29.6875 L 79.6875 64.84375 L 73.75 54.21875 C 70.46875 48.4375 67.03125 42.96875 66.09375 42.03125 C 64.84375 40.78125 62.34375 42.96875 57.03125 50.15625 C 52.96875 55.625 49.375 60.46875 49.0625 60.78125 C 48.75 61.25 46.875 60.15625 44.84375 58.4375 C 36.09375 50.78125 36.71875 50.78125 28.125 58.75 L 20.3125 66.09375 L 20.3125 29.6875 L 32.5 29.84375 C 39.0625 29.84375 43.4375 30.3125 42.1875 30.78125 Z M 49.21875 39.84375 C 49.21875 43.28125 44.375 45 41.875 42.5 C 39.21875 39.84375 41.71875 35.625 45.625 36.25 C 47.96875 36.5625 49.21875 37.8125 49.21875 39.84375 Z M 49.21875 39.84375 "/>
</g>
</svg>
